<mxfile host="www.draw.io" modified="2019-11-06T18:29:22.005Z" agent="Mozilla/5.0 (Windows NT 10.0; Win64; x64) AppleWebKit/537.36 (KHTML, like Gecko) Chrome/77.0.3865.120 Safari/537.36" etag="FWydQppO-BHlJMXmMCpp" version="12.2.0" type="github" pages="1">
  <diagram id="DDevlOcVktJe97K9xW6l" name="Page-1">
    <mxGraphModel dx="1122" dy="616" grid="1" gridSize="10" guides="1" tooltips="1" connect="1" arrows="1" fold="1" page="1" pageScale="1" pageWidth="1100" pageHeight="850" math="0" shadow="0">
      <root>
        <mxCell id="0"/>
        <mxCell id="1" parent="0"/>
        <mxCell id="XvDzeJorQcGoAf5q5wFx-4" value="" style="edgeStyle=orthogonalEdgeStyle;rounded=0;orthogonalLoop=1;jettySize=auto;html=1;" edge="1" parent="1" source="XvDzeJorQcGoAf5q5wFx-1">
          <mxGeometry relative="1" as="geometry">
            <mxPoint x="380" y="270" as="targetPoint"/>
          </mxGeometry>
        </mxCell>
        <mxCell id="XvDzeJorQcGoAf5q5wFx-1" value="" style="pointerEvents=1;verticalLabelPosition=bottom;shadow=0;dashed=0;align=center;fillColor=#ffffff;html=1;verticalAlign=top;strokeWidth=1;shape=mxgraph.electrical.signal_sources.ac_source;" vertex="1" parent="1">
          <mxGeometry x="240" y="240" width="60" height="60" as="geometry"/>
        </mxCell>
        <mxCell id="XvDzeJorQcGoAf5q5wFx-2" value="" style="whiteSpace=wrap;html=1;aspect=fixed;" vertex="1" parent="1">
          <mxGeometry x="380" y="230" width="80" height="80" as="geometry"/>
        </mxCell>
        <mxCell id="XvDzeJorQcGoAf5q5wFx-5" value="" style="endArrow=none;html=1;entryX=0.999;entryY=0.005;entryDx=0;entryDy=0;entryPerimeter=0;" edge="1" parent="1" target="XvDzeJorQcGoAf5q5wFx-2">
          <mxGeometry width="50" height="50" relative="1" as="geometry">
            <mxPoint x="380" y="310" as="sourcePoint"/>
            <mxPoint x="430" y="260" as="targetPoint"/>
          </mxGeometry>
        </mxCell>
        <mxCell id="XvDzeJorQcGoAf5q5wFx-6" value="310" style="text;html=1;resizable=0;points=[];autosize=1;align=left;verticalAlign=top;spacingTop=-4;" vertex="1" parent="1">
          <mxGeometry x="390" y="240" width="40" height="20" as="geometry"/>
        </mxCell>
        <mxCell id="XvDzeJorQcGoAf5q5wFx-7" value="24" style="text;html=1;resizable=0;points=[];autosize=1;align=left;verticalAlign=top;spacingTop=-4;" vertex="1" parent="1">
          <mxGeometry x="420" y="280" width="30" height="20" as="geometry"/>
        </mxCell>
        <mxCell id="XvDzeJorQcGoAf5q5wFx-12" value="" style="whiteSpace=wrap;html=1;aspect=fixed;" vertex="1" parent="1">
          <mxGeometry x="540" y="230" width="80" height="80" as="geometry"/>
        </mxCell>
        <mxCell id="XvDzeJorQcGoAf5q5wFx-13" value="" style="endArrow=none;html=1;entryX=0.999;entryY=0.005;entryDx=0;entryDy=0;entryPerimeter=0;" edge="1" target="XvDzeJorQcGoAf5q5wFx-12" parent="1">
          <mxGeometry width="50" height="50" relative="1" as="geometry">
            <mxPoint x="539.9999999999999" y="310" as="sourcePoint"/>
            <mxPoint x="590" y="260" as="targetPoint"/>
          </mxGeometry>
        </mxCell>
        <mxCell id="XvDzeJorQcGoAf5q5wFx-14" value="24" style="text;html=1;resizable=0;points=[];autosize=1;align=left;verticalAlign=top;spacingTop=-4;" vertex="1" parent="1">
          <mxGeometry x="550" y="240" width="30" height="20" as="geometry"/>
        </mxCell>
        <mxCell id="XvDzeJorQcGoAf5q5wFx-15" value="4" style="text;html=1;resizable=0;points=[];autosize=1;align=left;verticalAlign=top;spacingTop=-4;" vertex="1" parent="1">
          <mxGeometry x="580" y="280" width="20" height="20" as="geometry"/>
        </mxCell>
        <mxCell id="XvDzeJorQcGoAf5q5wFx-16" value="" style="edgeStyle=orthogonalEdgeStyle;rounded=0;orthogonalLoop=1;jettySize=auto;html=1;" edge="1" parent="1">
          <mxGeometry relative="1" as="geometry">
            <mxPoint x="460" y="270" as="sourcePoint"/>
            <mxPoint x="539.9999999999999" y="270" as="targetPoint"/>
          </mxGeometry>
        </mxCell>
        <mxCell id="XvDzeJorQcGoAf5q5wFx-18" value="" style="endArrow=none;html=1;" edge="1" parent="1">
          <mxGeometry width="50" height="50" relative="1" as="geometry">
            <mxPoint x="500" y="340" as="sourcePoint"/>
            <mxPoint x="500" y="270" as="targetPoint"/>
          </mxGeometry>
        </mxCell>
        <mxCell id="XvDzeJorQcGoAf5q5wFx-20" value="" style="endArrow=classic;html=1;" edge="1" parent="1">
          <mxGeometry width="50" height="50" relative="1" as="geometry">
            <mxPoint x="620" y="280" as="sourcePoint"/>
            <mxPoint x="670" y="280" as="targetPoint"/>
          </mxGeometry>
        </mxCell>
        <mxCell id="XvDzeJorQcGoAf5q5wFx-21" value="4V DC" style="text;html=1;resizable=0;points=[];autosize=1;align=left;verticalAlign=top;spacingTop=-4;" vertex="1" parent="1">
          <mxGeometry x="680" y="270" width="50" height="20" as="geometry"/>
        </mxCell>
        <mxCell id="XvDzeJorQcGoAf5q5wFx-25" value="4x RELAYs" style="rounded=0;whiteSpace=wrap;html=1;" vertex="1" parent="1">
          <mxGeometry x="440" y="340" width="120" height="60" as="geometry"/>
        </mxCell>
        <mxCell id="XvDzeJorQcGoAf5q5wFx-30" value="4x Control Signals" style="text;html=1;resizable=0;points=[];autosize=1;align=left;verticalAlign=top;spacingTop=-4;direction=west;" vertex="1" parent="1">
          <mxGeometry x="450" y="460" width="110" height="20" as="geometry"/>
        </mxCell>
        <mxCell id="XvDzeJorQcGoAf5q5wFx-31" value="" style="endArrow=classic;html=1;" edge="1" parent="1">
          <mxGeometry width="50" height="50" relative="1" as="geometry">
            <mxPoint x="470" y="450" as="sourcePoint"/>
            <mxPoint x="470" y="400" as="targetPoint"/>
          </mxGeometry>
        </mxCell>
        <mxCell id="XvDzeJorQcGoAf5q5wFx-32" value="" style="endArrow=classic;html=1;" edge="1" parent="1">
          <mxGeometry width="50" height="50" relative="1" as="geometry">
            <mxPoint x="490" y="450" as="sourcePoint"/>
            <mxPoint x="490" y="400" as="targetPoint"/>
          </mxGeometry>
        </mxCell>
        <mxCell id="XvDzeJorQcGoAf5q5wFx-33" value="" style="endArrow=classic;html=1;" edge="1" parent="1">
          <mxGeometry width="50" height="50" relative="1" as="geometry">
            <mxPoint x="510" y="450" as="sourcePoint"/>
            <mxPoint x="510" y="400" as="targetPoint"/>
          </mxGeometry>
        </mxCell>
        <mxCell id="XvDzeJorQcGoAf5q5wFx-34" value="" style="endArrow=classic;html=1;" edge="1" parent="1">
          <mxGeometry width="50" height="50" relative="1" as="geometry">
            <mxPoint x="530" y="450" as="sourcePoint"/>
            <mxPoint x="530" y="400" as="targetPoint"/>
          </mxGeometry>
        </mxCell>
        <mxCell id="XvDzeJorQcGoAf5q5wFx-36" value="" style="endArrow=classic;html=1;" edge="1" parent="1">
          <mxGeometry width="50" height="50" relative="1" as="geometry">
            <mxPoint x="320" y="370" as="sourcePoint"/>
            <mxPoint x="440" y="370" as="targetPoint"/>
          </mxGeometry>
        </mxCell>
        <mxCell id="XvDzeJorQcGoAf5q5wFx-37" value="" style="endArrow=none;html=1;" edge="1" parent="1">
          <mxGeometry width="50" height="50" relative="1" as="geometry">
            <mxPoint x="320" y="370" as="sourcePoint"/>
            <mxPoint x="320" y="270" as="targetPoint"/>
          </mxGeometry>
        </mxCell>
        <mxCell id="XvDzeJorQcGoAf5q5wFx-38" value="" style="endArrow=classic;html=1;exitX=1.023;exitY=0.173;exitDx=0;exitDy=0;exitPerimeter=0;" edge="1" parent="1">
          <mxGeometry width="50" height="50" relative="1" as="geometry">
            <mxPoint x="559.76" y="350.38" as="sourcePoint"/>
            <mxPoint x="617" y="350" as="targetPoint"/>
          </mxGeometry>
        </mxCell>
        <mxCell id="XvDzeJorQcGoAf5q5wFx-39" value="" style="endArrow=classic;html=1;exitX=1.023;exitY=0.173;exitDx=0;exitDy=0;exitPerimeter=0;" edge="1" parent="1">
          <mxGeometry width="50" height="50" relative="1" as="geometry">
            <mxPoint x="559.76" y="360.38" as="sourcePoint"/>
            <mxPoint x="617" y="360" as="targetPoint"/>
          </mxGeometry>
        </mxCell>
        <mxCell id="XvDzeJorQcGoAf5q5wFx-40" value="" style="endArrow=classic;html=1;exitX=1.023;exitY=0.173;exitDx=0;exitDy=0;exitPerimeter=0;" edge="1" parent="1">
          <mxGeometry width="50" height="50" relative="1" as="geometry">
            <mxPoint x="559.76" y="370.38" as="sourcePoint"/>
            <mxPoint x="617" y="370" as="targetPoint"/>
          </mxGeometry>
        </mxCell>
        <mxCell id="XvDzeJorQcGoAf5q5wFx-41" value="" style="endArrow=classic;html=1;exitX=1.023;exitY=0.173;exitDx=0;exitDy=0;exitPerimeter=0;" edge="1" parent="1">
          <mxGeometry width="50" height="50" relative="1" as="geometry">
            <mxPoint x="559.76" y="380.38" as="sourcePoint"/>
            <mxPoint x="617" y="380" as="targetPoint"/>
          </mxGeometry>
        </mxCell>
        <mxCell id="XvDzeJorQcGoAf5q5wFx-42" value="4x Output" style="text;html=1;resizable=0;points=[];autosize=1;align=left;verticalAlign=top;spacingTop=-4;" vertex="1" parent="1">
          <mxGeometry x="630" y="350" width="70" height="20" as="geometry"/>
        </mxCell>
      </root>
    </mxGraphModel>
  </diagram>
</mxfile>
